<svg width="1280" height="720" viewBox="0 0 1280 720" fill="none" xmlns="http://www.w3.org/2000/svg">
<path d="M221.804 466.331C161.969 439.376 113.688 387.458 105.164 328.382C96.6403 269.307 133.909 206.003 196.306 187.652C233.327 176.761 273.896 181.623 313.173 181.394C365.277 181.089 416.759 171.515 464.462 153.259C520.924 131.606 570.596 98.2691 626.167 74.9823C681.738 51.6955 747.936 39.065 805.563 61.0984C870.659 85.9967 909.309 151.013 913.442 213.808C915.482 244.858 910.137 276.745 893.1 303.337C870.201 339.108 828.689 361.977 785.974 377.546C691.801 411.86 585.261 417.489 494.778 458.733C465.527 472.047 438.437 488.925 408.759 501.518C379.081 514.112 345.624 522.376 312.82 517C278.909 511.463 257.56 482.437 221.804 466.331Z" fill="url(#paint0_radial)"/>
<path d="M1001.28 121.736C960.237 104.124 912.315 101.592 867.359 108.679C822.402 115.766 779.943 131.947 739.365 150.377C686.467 174.404 634.783 203.409 598.78 245.113C566.225 283.05 548.421 329.196 548.003 376.722C547.898 394.307 550.334 412.288 559.145 428.073C571.785 450.722 596.086 466.496 620.805 479.277C674.314 506.931 737.478 525.048 798.386 514.631C823.223 510.38 847.307 501.482 872.612 501.547C906.679 501.628 937.571 517.776 967.784 531.625C997.998 545.474 1032.6 557.713 1065.37 549.519C1088.8 543.647 1107.55 527.992 1121.64 510.532C1146.83 479.326 1159.75 441.368 1163.87 403.265C1167.99 365.161 1163.75 326.678 1157.05 288.878C1154.84 276.477 1151.93 263.311 1142.01 254.283C1130.39 243.709 1112.2 241.518 1097.75 234.127C1082.66 226.4 1042.36 139.348 1001.28 121.736Z" fill="url(#paint1_radial)"/>
<path d="M272.769 424.852C254.966 467.699 247.292 516.437 261.07 560.743C274.847 605.05 300.864 627.059 333.5 650C373 662.485 457 659.282 515.5 650C616.5 633.974 732.5 683.485 779.5 701.485C814.5 711.485 858.894 712.846 893.334 696.926C924.392 682.571 950.901 659.704 973.454 633.974C1009.38 592.962 1036.89 541.332 1035.98 486.808C1035.06 432.285 999.601 376.344 946.407 364.313C927.371 360.008 907.59 361.332 888.075 361.796C847.27 362.771 805.866 359.789 767.17 346.804C706.911 326.595 656.404 283.336 595.979 263.623C533.068 243.101 462.151 250.341 403.356 280.715C344.562 311.088 298.156 363.74 272.769 424.852Z" fill="url(#paint2_radial)"/>
<defs>
<radialGradient id="paint0_radial" cx="0" cy="0" r="1" gradientUnits="userSpaceOnUse" gradientTransform="translate(519.5 277) rotate(-21.1596) scale(505.587 351.036)">
<stop stop-color="#71B4AC" stop-opacity="0.3"/>
<stop offset="1" stop-color="#9FCCC6" stop-opacity="0"/>
</radialGradient>
<radialGradient id="paint1_radial" cx="0" cy="0" r="1" gradientUnits="userSpaceOnUse" gradientTransform="translate(817 363) rotate(-9.26814) scale(388.066 286.667)">
<stop stop-color="#6B8DB1" stop-opacity="0.3"/>
<stop offset="1" stop-color="#9DB4CC" stop-opacity="0"/>
</radialGradient>
<radialGradient id="paint2_radial" cx="0" cy="0" r="1" gradientUnits="userSpaceOnUse" gradientTransform="translate(645 480.481) rotate(90) scale(228.481 391)">
<stop stop-color="#F0D5C8" stop-opacity="0.72"/>
<stop offset="1" stop-color="#F5E3DB" stop-opacity="0"/>
</radialGradient>
</defs>
</svg>
