<?xml version="1.0" encoding="utf-8"?>
<!-- Generator: Adobe Illustrator 25.4.1, SVG Export Plug-In . SVG Version: 6.00 Build 0)  -->
<svg version="1.1" id="Layer_1" xmlns="http://www.w3.org/2000/svg" xmlns:xlink="http://www.w3.org/1999/xlink" x="0px" y="0px"
	 viewBox="0 0 29 26" style="enable-background:new 0 0 29 26;" xml:space="preserve">
<style type="text/css">
	.st0{fill-rule:evenodd;clip-rule:evenodd;fill:#128175;}
	.st1{fill:#128175;}
</style>
<path class="st0" d="M15.9,11.9c0.6-1,1-2.2,1-3.4c0-3.6-3.1-6.6-6.9-6.6c-3.6,0-6.5,2.6-6.8,6c-0.2,0-0.5,0-0.7,0
	c-0.3,0-0.6,0.3-0.6,0.6C1.8,8.8,2.1,9,2.5,9C2.7,9,3,9,3.2,9c0.3,3.4,3.3,6,6.8,6c2,0,3.9-0.9,5.1-2.2c2.2,1.4,3.6,3.6,3.6,5.9V24
	c0,0.3-0.3,0.6-0.6,0.6H1.9c-0.3,0-0.6-0.3-0.6-0.6v-5.3c0-1.8,0.8-3.6,2.2-4.9c0.2-0.2,0.3-0.6,0-0.8c-0.2-0.2-0.6-0.2-0.9,0
	C0.9,14.6,0,16.6,0,18.8v5.3c0,1,0.8,1.8,1.9,1.8h16.2c1,0,1.9-0.8,1.9-1.8v-5.3C20,16,18.4,13.5,15.9,11.9z M4.4,9
	c0.3,2.7,2.7,4.8,5.6,4.8c3.1,0,5.6-2.4,5.6-5.4S13.1,3,10,3C7.1,3,4.7,5.1,4.4,7.8c4-0.1,5.4-0.6,7.2-2.3c0.2-0.2,0.6-0.2,0.9,0
	c0.2,0.2,0.2,0.6,0,0.8C10.4,8.3,8.8,8.9,4.4,9z"/>
<g>
	<path class="st1" d="M27,5.9c0.6-0.1,0.6,1.1,0,1c-0.4,0-0.7,0-1.1,0H23c0,1.3,0,2.7,0,4c0,0.7-1,0.7-1,0c0-0.4,0-0.7,0-1.1V6.9
		c-1.3-0.1-2.7,0-4,0c-0.7,0-0.6-1.1,0-1c0.4,0,0.7,0,1.1,0c1,0,1.9-0.1,2.8,0v-4c0.1-0.6,1-0.7,1,0c0,0.4,0,0.7,0,1.1
		c0,1,0,2,0,2.8C24.3,5.8,25.6,5.8,27,5.9z"/>
</g>
</svg>
