<svg width="24" height="24" viewBox="0 0 24 24" fill="none" xmlns="http://www.w3.org/2000/svg">
<path fill-rule="evenodd" clip-rule="evenodd" d="M13.5958 15.1126L22.3346 7.20309C24.1551 5.55535 24.1551 2.8836 22.3346 1.23587C20.5141 -0.411844 17.5637 -0.411844 15.7419 1.23568L6.95105 9.19239C6.94573 9.1972 6.94053 9.20208 6.93543 9.20701L1.94913 13.7202C-0.649709 16.0724 -0.649709 19.8846 1.94913 22.2368C4.54663 24.5878 8.75848 24.5878 11.356 22.2368L23.8052 10.9689C24.065 10.7338 24.065 10.3525 23.8052 10.1174C23.5454 9.88226 23.1241 9.88226 22.8643 10.1174L10.4152 21.3853C8.33726 23.266 4.96785 23.266 2.88994 21.3853C0.810701 19.5033 0.810701 16.4536 2.88994 14.5717L16.0607 2.65075C16.066 2.64594 16.0712 2.64106 16.0763 2.63613L16.6826 2.0874C17.9846 0.909926 20.0928 0.909926 21.3938 2.0874C22.6946 3.26485 22.6946 5.1741 21.3938 6.35155L14.8232 12.2986C14.8184 12.3027 14.8138 12.3068 14.8091 12.311L12.6532 14.2627L12.6031 14.3081C12.6023 14.3087 12.6016 14.3094 12.6009 14.31L7.58314 18.8525C7.06095 19.3243 6.21357 19.3243 5.69094 18.8521C5.16999 18.3798 5.16999 17.6128 5.69174 17.1398L12.2933 11.1659C12.5531 10.9307 12.5532 10.5495 12.2934 10.3143C12.0336 10.0791 11.6124 10.0791 11.3526 10.3142L4.75057 16.2885C3.70985 17.2321 3.70985 18.7605 4.75012 19.7036C5.79297 20.6459 7.48155 20.6459 8.5236 19.7044L13.5439 15.1596L13.5958 15.1126Z" fill="#128175"/>
</svg>
