<svg width="24" height="24" viewBox="0 0 24 24" fill="none" xmlns="http://www.w3.org/2000/svg">
<path fill-rule="evenodd" clip-rule="evenodd" d="M20.4252 22.0115V10.068C20.4252 9.69936 20.6938 9.40053 21.0252 9.40053C21.3566 9.40053 21.6252 9.69936 21.6252 10.068V22.0115C21.6252 23.6748 19.9085 24.6128 18.6736 23.5472L16.3627 21.0457L14.3163 18.8827C14.2029 18.7633 14.054 18.6969 13.9011 18.6969L2.7924 18.7022L1.7935 18.6889C0.799901 18.6769 0 17.7772 0 16.6719V2.00238C0 0.89652 0.805351 0 1.8 0H22.2C23.1938 0 24 0.896878 24 2.00238V18.0215C24 18.3901 23.7314 18.6889 23.4 18.6889C23.0686 18.6889 22.8 18.3901 22.8 18.0215V2.00238C22.8 1.63414 22.531 1.33492 22.2 1.33492H1.8C1.46828 1.33492 1.2 1.63357 1.2 2.00238V16.6719C1.2 17.0457 1.47058 17.35 1.8072 17.354L2.79934 17.3673L13.9008 17.362C14.3616 17.362 14.8055 17.5597 15.1421 17.914L17.1944 20.0834L19.4586 22.5404C19.8529 22.8789 20.4252 22.5661 20.4252 22.0115ZM15.993 9.11303C12.959 12.4881 8.03955 12.4881 5.00563 9.11303C4.77132 8.85237 4.77132 8.42976 5.00563 8.1691C5.23995 7.90844 5.61984 7.90844 5.85416 8.1691C8.41944 11.0228 12.5791 11.0228 15.1444 8.1691C15.3787 7.90844 15.7586 7.90844 15.993 8.1691C16.2273 8.42976 16.2273 8.85237 15.993 9.11303Z" fill="#128175"/>
</svg>
