<svg width="24" height="24" viewBox="0 0 24 24" fill="none" xmlns="http://www.w3.org/2000/svg">
<path fill-rule="evenodd" clip-rule="evenodd" d="M24 12C24 18.6278 18.6278 24 12 24C5.37223 24 0 18.6278 0 12C0 5.37223 5.37223 0 12 0C18.6278 0 24 5.37223 24 12ZM22.8 12C22.8 6.03497 17.965 1.2 12 1.2C6.03497 1.2 1.2 6.03497 1.2 12C1.2 17.965 6.03497 22.8 12 22.8C17.965 22.8 22.8 17.965 22.8 12ZM11.8282 9.0022C11.9459 9.31196 12.2924 9.46765 12.6022 9.34995L15.8789 8.10485L13.9874 13.1353L10.4817 9.62961C10.0402 9.19223 9.29987 9.35769 9.08213 9.93431L6.72736 16.2029C6.47063 16.8875 7.13885 17.5573 7.82424 17.2962L11.8486 15.7663C12.1584 15.6486 12.314 15.302 12.1963 14.9923C12.0785 14.6825 11.732 14.5269 11.4222 14.6446L8.12353 15.8986L10.0159 10.8609L13.5224 14.3673C13.9575 14.8066 14.7027 14.64 14.9208 14.0626L17.2754 7.80024C17.5354 7.11798 16.8677 6.44881 16.1828 6.70568L12.1759 8.2282C11.8662 8.3459 11.7105 8.69243 11.8282 9.0022Z" fill="#128175"/>
</svg>
