<svg width="24" height="24" viewBox="0 0 24 24" fill="none" xmlns="http://www.w3.org/2000/svg">
<path fill-rule="evenodd" clip-rule="evenodd" d="M15.9509 0.530924C15.5285 0.190954 14.9551 0 14.3568 0H5.24646C4.00516 0 2.99811 0.806229 2.99811 1.8V19.8C2.99811 20.7938 4.00516 21.6 5.24646 21.6H17.9868V22.2C17.9868 22.5315 17.6517 22.8 17.2374 22.8H2.24836C1.83487 22.8 1.4989 22.531 1.4989 22.2V3C1.4989 2.66863 1.16336 2.4 0.749452 2.4C0.335541 2.4 0 2.66863 0 3V22.2C0 23.1938 1.00705 24 2.24836 24H17.2374C18.4798 24 19.4858 23.1941 19.4858 22.2V21.6H20.2355C21.4779 21.6 22.4839 20.7941 22.4839 19.8V7.80974H23.2505C23.6645 7.80974 24 7.54112 24 7.20974C24 6.87837 23.6645 6.60975 23.2505 6.60975H22.4839V6.5328C22.4839 6.05817 22.2488 5.60288 21.831 5.26481L15.9509 0.530924ZM14.2601 6.60975H20.985V6.5328C20.985 6.37505 20.9063 6.22279 20.7668 6.10988L14.8882 1.37714C14.7471 1.2636 14.5561 1.2 14.3568 1.2H5.24646C4.83297 1.2 4.49701 1.46897 4.49701 1.8V19.8C4.49701 20.131 4.83297 20.4 5.24646 20.4H20.2355C20.6498 20.4 20.985 20.1315 20.985 19.8V7.80974H13.6621C13.1656 7.80974 12.7612 7.48823 12.7612 7.08975V2.96895C12.7612 2.63757 13.0968 2.36895 13.5107 2.36895C13.9246 2.36895 14.2601 2.63757 14.2601 2.96895V6.60975Z" fill="#128175"/>
</svg>
