<svg width="24" height="24" viewBox="0 0 24 24" fill="none" xmlns="http://www.w3.org/2000/svg">
<path fill-rule="evenodd" clip-rule="evenodd" d="M15.865 10.597C13.7537 10.597 11.9387 8.87566 11.4737 6.48633C11.3997 6.1064 11.6017 5.72791 11.9247 5.64094C12.2477 5.55397 12.5695 5.79146 12.6434 6.17139C12.9842 7.92238 14.3161 9.1856 15.865 9.1856C17.691 9.1856 19.171 7.44529 19.171 5.29852C19.171 4.92354 19.1258 4.56097 19.0415 4.21791H1.80001C1.46829 4.21791 1.20001 4.53367 1.20001 4.92362V17.215L8.36551 8.78825C8.64662 8.45761 9.10212 8.45761 9.38324 8.78825L14.8744 15.2469L16.7661 13.0219C17.0463 12.6923 17.4977 12.6923 17.7851 13.022L21.3119 17.1716C21.5462 17.4473 21.5461 17.8941 21.3118 18.1697C21.0774 18.4452 20.6975 18.4451 20.4632 18.1695L17.2755 14.4188L15.7229 16.245L18.6975 19.7437H22.2C22.5317 19.7437 22.8 19.4279 22.8 19.0379V4.92362C22.8 4.53367 22.5317 4.21791 22.2 4.21791H20.2772C20.3387 4.56678 20.371 4.92821 20.371 5.29852C20.371 8.22487 18.3537 10.597 15.865 10.597ZM19.8975 21.1551H22.2C23.1947 21.1551 24 20.2072 24 19.038V4.92365C24 3.7544 23.1947 2.8065 22.2 2.8065H19.8425C19.0843 1.13644 17.5876 0 15.865 0C14.1757 0 12.6593 1.10303 11.8874 2.8065H1.8C0.805351 2.8065 0 3.7544 0 4.92365V19.038C0 20.2072 0.805351 21.1551 1.8 21.1551H18.2005L20.4435 23.7933C20.6778 24.0689 21.0577 24.0689 21.292 23.7933C21.5264 23.5177 21.5264 23.0709 21.292 22.7953L19.8975 21.1551ZM17.0005 19.7437L8.87435 10.1858L1.21465 19.1937C1.27486 19.5086 1.51382 19.7437 1.80001 19.7437H17.0005ZM18.4023 2.8065C17.7959 1.95381 16.8844 1.41143 15.865 1.41143C14.8615 1.41143 13.9413 1.94163 13.3267 2.8065H18.4023Z" fill="#128175"/>
</svg>
