<svg width="4" height="16" viewBox="0 0 4 16" fill="none" xmlns="http://www.w3.org/2000/svg">
<path fill-rule="evenodd" clip-rule="evenodd" d="M4 14C4 12.8956 3.10485 12 2 12C0.895151 12 0 12.8956 0 14C0 15.1044 0.895151 16 2 16C3.10485 16 4 15.1044 4 14ZM4 8C4 6.89556 3.10485 6 2 6C0.895151 6 0 6.89556 0 8C0 9.10444 0.895151 10 2 10C3.10485 10 4 9.10444 4 8ZM1 8C1 7.44775 1.44754 7 2 7C2.55246 7 3 7.44775 3 8C3 8.55225 2.55246 9 2 9C1.44754 9 1 8.55225 1 8ZM2 13C1.44754 13 1 13.4477 1 14C1 14.5523 1.44754 15 2 15C2.55246 15 3 14.5523 3 14C3 13.4477 2.55246 13 2 13ZM2 1C1.44754 1 1 1.44775 1 2C1 2.55225 1.44754 3 2 3C2.55246 3 3 2.55225 3 2C3 1.44775 2.55246 1 2 1ZM4 2C4 0.895564 3.10485 0 2 0C0.895151 0 0 0.895564 0 2C0 3.10444 0.895151 4 2 4C3.10485 4 4 3.10444 4 2Z" fill="#128175"/>
</svg>
