<svg width="24" height="24" viewBox="0 0 24 24" fill="none" xmlns="http://www.w3.org/2000/svg">
<path fill-rule="evenodd" clip-rule="evenodd" d="M20.1573 10.2686C20.3165 9.62332 20.3988 8.99381 20.3988 8.38203C20.3988 3.75212 16.6478 0 12.0192 0C7.39044 0 3.63842 3.75232 3.63842 8.38203C3.63842 9.04966 3.73783 9.73938 3.92942 10.4487C4.49085 12.5271 5.81516 14.7112 7.66952 16.918L7.74281 17.0049C3.19555 17.4696 0 18.6941 0 20.3989C0 22.5989 5.3214 24 12 24C18.6786 24 24 22.5989 24 20.3989C24 18.9366 21.8675 17.9134 18.4046 17.3074C18.0782 17.2503 17.7673 17.4687 17.7102 17.7952C17.6531 18.1217 17.8714 18.4327 18.1978 18.4898C21.0575 18.9902 22.8 19.8263 22.8 20.3989C22.8 20.811 21.7756 21.4485 19.9084 21.9401C17.8378 22.4853 15.016 22.7996 12 22.7996C8.98403 22.7996 6.16216 22.4853 4.09158 21.9401C2.22445 21.4485 1.2 20.811 1.2 20.3989C1.2 19.9869 2.22434 19.3497 4.0915 18.8583C5.39008 18.5166 6.98426 18.2657 8.7366 18.1261C9.27923 18.7117 9.83488 19.271 10.3906 19.7982C10.7153 20.1063 11.0172 20.3815 11.2886 20.6203C11.4528 20.7648 11.5713 20.8658 11.6366 20.9198L12.0179 21.2356L12.4003 20.9211C12.4656 20.8674 12.5842 20.7669 12.7484 20.6233C13.0199 20.3858 13.3218 20.1121 13.6466 19.8054C14.5739 18.9299 15.5011 17.9643 16.3679 16.9351C18.281 14.6635 19.6285 12.4121 20.1573 10.2686ZM8.5881 16.1456C8.79787 16.3953 9.01151 16.6413 9.22803 16.8833C10.1165 16.8277 11.0443 16.7991 12 16.7991C12.3314 16.7991 12.6 17.0678 12.6 17.3993C12.6 17.7307 12.3314 17.9994 12 17.9994C11.4271 17.9994 10.8613 18.0108 10.3063 18.0329C10.6081 18.3402 10.9122 18.6387 11.2164 18.9273C11.5057 19.2018 11.7757 19.4488 12.0204 19.6654C12.2646 19.4504 12.5341 19.2052 12.8229 18.9325C13.719 18.0865 14.6151 17.1532 15.4501 16.1618C17.2553 14.0184 18.5158 11.9123 18.9922 9.98102C19.129 9.42656 19.1988 8.89297 19.1988 8.38203C19.1988 4.41505 15.985 1.20035 12.0192 1.20035C8.05311 1.20035 4.8384 4.41531 4.8384 8.38203C4.8384 8.93902 4.92277 9.52438 5.08786 10.1355C5.59536 12.0144 6.83616 14.0607 8.5881 16.1456ZM14.4187 8.39079C14.4187 7.06532 13.3441 5.99009 12.0187 5.99009C11.6873 5.99009 11.4187 5.72138 11.4187 5.38992C11.4187 5.05845 11.6873 4.78974 12.0187 4.78974C14.0069 4.78974 15.6187 6.40246 15.6187 8.39079C15.6187 10.3799 14.0073 11.9918 12.0187 11.9918C10.0301 11.9918 8.4187 10.3799 8.4187 8.39079C8.4187 8.05932 8.68733 7.79061 9.0187 7.79061C9.35007 7.79061 9.6187 8.05932 9.6187 8.39079C9.6187 9.717 10.6929 10.7915 12.0187 10.7915C13.3445 10.7915 14.4187 9.717 14.4187 8.39079Z" fill="#128175"/>
</svg>
