<svg width="24" height="24" viewBox="0 0 24 24" fill="none" xmlns="http://www.w3.org/2000/svg">
<path fill-rule="evenodd" clip-rule="evenodd" d="M17.5791 14.976C18.6114 13.4438 19.2139 11.5977 19.2139 9.61052C19.2139 4.30254 14.9133 0 9.60694 0C4.30134 0 0 4.30294 0 9.61052C0 14.9189 4.30093 19.221 9.60694 19.221C12.4921 19.221 15.0797 17.9496 16.8405 15.936L22.612 21.7097C22.8615 21.9593 22.8615 22.3622 22.612 22.6118C22.4907 22.7332 22.3297 22.7987 22.1624 22.7987C21.994 22.7987 21.833 22.7333 21.7115 22.6118L17.2119 18.1105C16.9774 17.8759 16.5972 17.8759 16.3627 18.1105C16.1282 18.345 16.1282 18.7254 16.3627 18.9599L20.8624 23.4613C21.2113 23.8103 21.6785 24 22.1624 24C22.6452 24 23.1125 23.8101 23.4612 23.4613C24.1796 22.7426 24.1796 21.579 23.4612 20.8603L17.5791 14.976ZM16.7115 14.1081C17.5358 12.8075 18.013 11.2649 18.013 9.61052C18.013 4.96598 14.2501 1.20132 9.60694 1.20132C4.96456 1.20132 1.20087 4.96641 1.20087 9.61052C1.20087 14.2554 4.96413 18.0197 9.60694 18.0197C12.1605 18.0197 14.4477 16.8815 15.9892 15.0844L14.6431 13.7378C14.4086 13.5032 14.4086 13.1229 14.6431 12.8884C14.8776 12.6538 15.2577 12.6538 15.4922 12.8884L16.7115 14.1081ZM12.8638 14.6577C11.9017 15.2807 10.7796 15.6172 9.6067 15.6172C6.29084 15.6172 3.60236 12.9281 3.60236 9.61067C3.60236 9.27894 3.33353 9.01001 3.00192 9.01001C2.67031 9.01001 2.40149 9.27894 2.40149 9.61067C2.40149 13.5916 5.62765 16.8186 9.6067 16.8186C11.0129 16.8186 12.3612 16.4141 13.5163 15.6662C13.7947 15.4859 13.8743 15.1141 13.6941 14.8356C13.514 14.5571 13.1422 14.4774 12.8638 14.6577Z" fill="#128175"/>
</svg>
