<svg width="24" height="24" viewBox="0 0 24 24" fill="none" xmlns="http://www.w3.org/2000/svg">
<path fill-rule="evenodd" clip-rule="evenodd" d="M11.0386 7.63117L5.55011 2.15326C5.13916 1.73473 5.26592 1.01906 5.81393 0.785205C7.6423 -0.00295315 9.65382 -0.213486 11.6786 0.22506C15.417 1.0353 18.378 4.08672 19.0444 7.83213C19.4832 10.3003 18.9727 12.6381 17.8165 14.5423L23.8243 20.5398C24.0586 20.7737 24.0586 21.1529 23.8243 21.3868C23.59 21.6207 23.2101 21.6207 22.9757 21.3868L17.1198 15.541C15.0289 18.1668 11.5872 19.6734 7.84666 19.0107C4.09455 18.3469 1.03817 15.3906 0.226367 11.6579C-0.214245 9.63628 -0.00331826 7.62794 0.78654 5.80506C1.02233 5.25444 1.74341 5.12833 2.16085 5.54505L7.64078 11.0144L10.3226 10.3115L11.0386 7.63117ZM17.8629 8.04157C18.2282 10.0964 17.8445 12.0468 16.9386 13.666L16.0243 12.7533C15.79 12.5194 15.4101 12.5194 15.1758 12.7533C14.9415 12.9872 14.9415 13.3665 15.1758 13.6004L16.2649 14.6875C14.444 17.0534 11.3871 18.4214 8.05622 17.8312C4.78498 17.2525 2.10789 14.6631 1.39899 11.4035C1.0518 9.81054 1.16488 8.23423 1.69297 6.77202L6.94037 12.0092C7.17836 12.251 7.54609 12.323 7.86284 12.1881L10.8685 11.4004C11.149 11.2879 11.3083 11.1289 11.393 10.9301L12.2381 7.76788C12.3441 7.53161 12.273 7.16926 12.0308 6.92751L6.78325 1.69013C8.24965 1.16316 9.82873 1.0502 11.424 1.39574C14.6882 2.10319 17.2819 4.77607 17.8629 8.04157ZM20.6178 23.8246L15.7758 18.991C15.5415 18.7571 15.5415 18.3778 15.7758 18.1439C16.0101 17.91 16.39 17.91 16.6244 18.1439L21.4663 22.9775C21.7006 23.2114 21.7006 23.5907 21.4663 23.8246C21.232 24.0585 20.8521 24.0585 20.6178 23.8246Z" fill="#128175"/>
</svg>
