<svg width="24" height="24" viewBox="0 0 24 24" fill="none" xmlns="http://www.w3.org/2000/svg">
<path fill-rule="evenodd" clip-rule="evenodd" d="M16.5 2.00003V2.67778H23.25C23.6642 2.67778 24 2.97626 24 3.34446C24 3.71265 23.6642 4.01113 23.25 4.01113H21V22C21 23.1055 19.9937 24 18.75 24H5.25C4.00629 24 3 23.1055 3 22V6.0437C3 5.67551 3.33579 5.37702 3.75 5.37702C4.16421 5.37702 4.5 5.67551 4.5 6.0437V22C4.5 22.3691 4.83471 22.6666 5.25 22.6666H18.75C19.1653 22.6666 19.5 22.3691 19.5 22V4.01113H9V6.0001C9 6.3683 8.66421 6.66678 8.25 6.66678C7.83579 6.66678 7.5 6.3683 7.5 6.0001V4.01113H0.75C0.335786 4.01113 0 3.71265 0 3.34446C0 2.97626 0.335786 2.67778 0.75 2.67778H7.5V2.00003C7.5 0.895467 8.50669 0 9.75 0H14.25C15.4933 0 16.5 0.895467 16.5 2.00003ZM15 2.00003V2.67778H9V2.00003C9 1.63165 9.33535 1.33336 9.75 1.33336H14.25C14.6647 1.33336 15 1.63165 15 2.00003ZM7.49261 19.3213V10.2105C7.49261 9.84226 7.8284 9.54378 8.24261 9.54378C8.65683 9.54378 8.99261 9.84226 8.99261 10.2105V19.3213C8.99261 19.6895 8.65683 19.988 8.24261 19.988C7.8284 19.988 7.49261 19.6895 7.49261 19.3213ZM14.9927 10.2105V19.3213C14.9927 19.6895 15.3285 19.988 15.7427 19.988C16.1569 19.988 16.4927 19.6895 16.4927 19.3213V10.2105C16.4927 9.84226 16.1569 9.54378 15.7427 9.54378C15.3285 9.54378 14.9927 9.84226 14.9927 10.2105ZM11.25 19.3213V10.2105C11.25 9.84226 11.5858 9.54378 12 9.54378C12.4142 9.54378 12.75 9.84226 12.75 10.2105V19.3213C12.75 19.6895 12.4142 19.988 12 19.988C11.5858 19.988 11.25 19.6895 11.25 19.3213Z" fill="#128175"/>
</svg>
